<svg width="22" height="20" viewBox="0 0 22 20" fill="none" xmlns="http://www.w3.org/2000/svg">
<path d="M2.07975 5.68098C2.91444 2.34223 5.91432 0 9.35582 0H13.8942C18.7735 0 22.3536 4.58542 21.1702 9.31902L19.9202 14.319C19.0856 17.6578 16.0857 20 12.6442 20H8.10582C3.22654 20 -0.353646 15.4146 0.829754 10.681L2.07975 5.68098Z" fill="#7162DE"/>
<path d="M2.07975 5.68098C2.91444 2.34223 5.91432 0 9.35582 0H13.8942C18.7735 0 22.3536 4.58542 21.1702 9.31902L19.9202 14.319C19.0856 17.6578 16.0857 20 12.6442 20H8.10582C3.22654 20 -0.353646 15.4146 0.829754 10.681L2.07975 5.68098Z" fill="url(#paint0_linear_5006_2658)" fill-opacity="0.25" style="mix-blend-mode:overlay"/>
<defs>
<linearGradient id="paint0_linear_5006_2658" x1="13.5" y1="-4.47034e-08" x2="8.5" y2="20" gradientUnits="userSpaceOnUse">
<stop stop-opacity="0"/>
<stop offset="1"/>
</linearGradient>
</defs>
</svg>
