<svg width="384" height="74" viewBox="0 0 384 74" fill="none" xmlns="http://www.w3.org/2000/svg">
<path d="M372.941 19.661L359.724 45.7987L354.003 19.668H343.799L352.768 57.0532L352.539 57.4432C351.143 60.1872 349.651 62.0746 348.054 63.1054C346.451 64.1918 344.285 64.7072 341.556 64.6584L339.932 73.963C344.882 74.2206 349.207 73.1342 352.921 70.7036C356.628 68.3217 360.036 64.2406 363.125 58.4461L384 19.661H372.941Z" fill="#7162DE"/>
<path d="M328.878 24.856C326.406 20.6773 322.595 18.581 316.972 18.581C311.349 18.581 306.559 20.4683 302.588 24.2431C298.673 27.9691 296.195 32.6005 295.167 38.1302C294.084 43.869 294.966 48.8555 297.798 53.0969C300.686 57.387 305.011 59.532 310.787 59.532C315.993 59.532 320.27 57.979 323.623 54.8798L323.005 58.4456H332.981L339.784 19.6605H329.808L328.878 24.856ZM326.476 38.4367L326.323 39.6763C325.65 42.7268 324.157 45.2061 321.839 47.1214C319.52 49.0366 316.868 49.9907 313.883 49.9907C310.787 49.9907 308.42 48.9878 306.767 46.9681C305.115 44.8997 304.574 42.2393 305.143 38.9799C305.705 35.6718 307.121 33.0322 309.392 31.0683C311.71 29.1043 314.515 28.1223 317.507 28.1223C320.499 28.1223 322.845 29.0764 324.546 30.9917C326.247 32.8512 326.885 35.3375 326.476 38.4367Z" fill="#7162DE"/>
<path d="M251.831 58.4518H262.5L265.111 43.3946L254.316 44.2582L251.831 58.4518Z" fill="#7162DE"/>
<path d="M215.253 48.9807C214.17 48.5141 213.788 47.3302 214.093 45.4149L214.545 42.8868L204.729 41.9745L204.118 45.4149C203.194 50.6313 204.069 54.3086 206.749 56.4258C209.477 58.5499 214.086 59.2185 220.584 58.4454L222.132 49.3707C218.682 49.5727 216.384 49.4474 215.253 48.9807Z" fill="#7162DE"/>
<path d="M180.832 58.4458H190.808L193.869 40.958L184.046 40.0457L180.832 58.4458Z" fill="#7162DE"/>
<path d="M293.418 9.57614C290.426 5.95462 286.198 4.14386 280.735 4.14386H261.332V4.15779L256.042 34.3905L266.184 37.4619L250.086 35.2054C247.205 34.8014 245.122 32.2315 245.309 29.3204L247.239 0L245.511 0.0139319L236.722 30.1074C236.035 32.4474 233.911 34.0771 231.481 34.1119L216.049 34.3557L216.951 29.2786H225.622L227.399 19.6607H218.583L220.512 8.80308L209.995 11.8257L208.6 19.6607H201.949L200.249 29.2786H206.975L206.045 34.5159L194.966 34.69V34.6343C195.847 29.6686 195.105 25.7616 192.73 22.9201C190.308 20.0228 186.955 18.5742 182.678 18.5742C177.736 18.5742 173.737 20.3293 170.696 23.8463L171.467 19.6607H161.491L154.688 58.4458H164.664L168.531 36.264C169.252 33.52 170.495 31.4515 172.244 30.0586C173.994 28.61 176.139 27.8857 178.506 27.8857C180.873 27.8857 182.63 28.5891 183.761 29.982C184.74 31.1381 185.115 32.7678 184.907 34.8432L174.674 35.0034L174.57 37.0649L228.031 42.0514C228.635 42.1072 229.246 42.142 229.856 42.1629L239.881 42.8454L233.362 44.7188C233.584 45.3526 234.001 47.1564 233.98 47.8668L233.244 69.8188H234.973L242.338 46.6201C243.025 44.4611 244.942 42.9359 247.184 42.7549L273.89 40.6098H274.633C280.714 40.6098 285.719 38.9801 289.634 35.7207C293.55 32.4057 295.896 28.1434 296.667 22.9201C297.493 17.5922 296.41 13.1419 293.418 9.57614ZM286.073 22.14C285.608 24.7238 284.449 26.7923 282.595 28.3454C280.79 29.8427 278.499 30.5949 275.716 30.5949H267.364L270.224 14.1518H279.117C281.845 14.1518 283.803 14.8761 284.99 16.3247C286.177 17.7176 286.538 19.6607 286.073 22.14Z" fill="#7162DE"/>
<path d="M148.804 24.5429C145.451 20.5592 140.994 18.5674 135.274 18.5674C129.553 18.5674 124.5 20.4548 120.119 24.2295C115.683 27.9555 113.059 32.6356 112.233 38.2699C111.254 44.2732 112.413 49.3085 115.711 53.3967C119.008 57.4848 123.882 59.5254 130.324 59.5254C137.544 59.5254 143.312 57.0669 147.644 52.157L140.612 46.4949C138.141 49.1344 134.968 50.4507 131.101 50.4507C128.422 50.4507 126.263 49.8587 124.611 48.6678C122.958 47.4281 122.035 45.5895 121.827 43.1589H151.053C151.726 41.4526 152.087 40.0806 152.136 39.0499H152.129C153.212 33.3111 152.101 28.4709 148.804 24.5429ZM123.229 35.3309C125.492 30.1563 129.31 27.5724 134.67 27.5724C137.141 27.5724 139.099 28.248 140.543 29.5921C142.035 30.8806 142.813 32.7958 142.861 35.3309H123.229Z" fill="#7162DE"/>
<path d="M102.012 29.279H110.662L112.439 19.6611H103.623L105.56 8.8035L95.0426 11.8261L93.6542 19.6611H87.0037L85.3029 29.279H92.0298L89.1697 45.4157C88.2464 50.6321 89.1211 54.3093 91.8007 56.4265C94.5359 58.5507 99.1454 59.2193 105.643 58.4462L107.191 49.3715C103.741 49.5735 101.443 49.4481 100.312 48.9815C99.2287 48.5149 98.8399 47.3309 99.1523 45.4157L102.012 29.279Z" fill="#7162DE"/>
<path d="M67.747 18.5755C62.7974 18.5755 58.8057 20.3306 55.7651 23.8476L56.5356 19.662H46.5599L39.7567 58.4471H49.7324L53.5992 36.2653C54.3211 33.5213 55.5637 31.4528 57.3131 30.0599C59.0625 28.6113 61.2076 27.887 63.5749 27.887C65.9421 27.887 67.6984 28.5904 68.83 29.9833C69.9615 31.3275 70.3017 33.2914 69.8366 35.8752L65.8935 58.4471H75.8692L80.0414 34.6356C80.9161 29.6699 80.1733 25.7628 77.7991 22.9213C75.3763 20.0241 72.0233 18.5755 67.747 18.5755Z" fill="#7162DE"/>
<path d="M35.0226 36.0197L36.8761 26.0117H16.3138L18.4033 14.3741H40.8261L42.6033 4.14331H9.51059L0 58.4452H33.4745L35.2517 48.2075H12.4471L14.613 36.0197H35.0226Z" fill="#7162DE"/>
</svg>
